<?xml version="1.0" encoding="utf-8"?>
<!-- Generator: Adobe Illustrator 24.2.0, SVG Export Plug-In . SVG Version: 6.00 Build 0)  -->
<svg version="1.1" id="Ebene_1" xmlns="http://www.w3.org/2000/svg" xmlns:xlink="http://www.w3.org/1999/xlink" x="0px" y="0px"
	 viewBox="0 0 56 56" style="enable-background:new 0 0 56 56;" xml:space="preserve">
<style type="text/css">
	.st0{fill:#231F20;}
	.st1{font-family:'ArialMT';}
	.st2{font-size:2.5646px;}
	.st3{fill:#176FC1;}
</style>
<g id="g8" transform="matrix(1.3333333,0,0,-1.3333333,0,190.16)">
	<g id="g10" transform="scale(0.1)">
		<g id="g12" transform="scale(10)">
			<text transform="matrix(0.75 0 0 -0.75 3.4508 116.3409)" class="st0 st1 st2">D</text>
			<text transform="matrix(0.75 0 0 -0.75 4.7311 116.3409)" class="st0 st1 st2">e</text>
			<text transform="matrix(0.75 0 0 -0.75 5.6949 116.3409)" class="st0 st1 st2">u</text>
			<text transform="matrix(0.75 0 0 -0.75 6.7555 116.3409)" class="st0 st1 st2">t</text>
			<text transform="matrix(0.75 0 0 -0.75 7.392 116.3409)" class="st0 st1 st2">s</text>
			<text transform="matrix(0.75 0 0 -0.75 8.153 116.3409)" class="st0 st1 st2">c</text>
			<text transform="matrix(0.75 0 0 -0.75 9.015 116.3409)" class="st0 st1 st2">h</text>
			<text transform="matrix(0.75 0 0 -0.75 10.0829 116.3409)" class="st0 st1 st2">e</text>
			<text transform="matrix(0.75 0 0 -0.75 11.046 116.3409)" class="st0 st1 st2">s</text>
			<text transform="matrix(0.75 0 0 -0.75 11.8077 116.3409)" class="st0 st1 st2"> </text>
			<text transform="matrix(0.75 0 0 -0.75 12.2238 116.3409)" class="st0 st1 st2">Z</text>
			<text transform="matrix(0.75 0 0 -0.75 13.2638 116.3409)" class="st0 st1 st2">e</text>
			<text transform="matrix(0.75 0 0 -0.75 14.2284 116.3409)" class="st0 st1 st2">n</text>
			<text transform="matrix(0.75 0 0 -0.75 15.2963 116.3409)" class="st0 st1 st2">t</text>
			<text transform="matrix(0.75 0 0 -0.75 15.932 116.3409)" class="st0 st1 st2">r</text>
			<text transform="matrix(0.75 0 0 -0.75 16.5612 116.3409)" class="st0 st1 st2">u</text>
			<text transform="matrix(0.75 0 0 -0.75 17.621 116.3409)" class="st0 st1 st2">m</text>
			<text transform="matrix(0.75 0 0 -0.75 19.225 116.3409)" class="st0 st1 st2"> </text>
			<text transform="matrix(0.75 0 0 -0.75 19.6329 116.3409)" class="st0 st1 st2">f</text>
			<text transform="matrix(0.75 0 0 -0.75 20.1947 116.3409)" class="st0 st1 st2">ü</text>
			<text transform="matrix(0.75 0 0 -0.75 21.2545 116.3409)" class="st0 st1 st2">r</text>
			<text transform="matrix(0.75 0 0 -0.75 3.4508 114.0352)" class="st0 st1 st2">H</text>
			<text transform="matrix(0.75 0 0 -0.75 4.7047 114.0352)" class="st0 st1 st2">o</text>
			<text transform="matrix(0.75 0 0 -0.75 5.7609 114.0352)" class="st0 st1 st2">c</text>
			<text transform="matrix(0.75 0 0 -0.75 6.6222 114.0352)" class="st0 st1 st2">h</text>
			<text transform="matrix(0.75 0 0 -0.75 7.6901 114.0352)" class="st0 st1 st2">s</text>
			<text transform="matrix(0.75 0 0 -0.75 8.4511 114.0352)" class="st0 st1 st2">c</text>
			<text transform="matrix(0.75 0 0 -0.75 9.3138 114.0352)" class="st0 st1 st2">h</text>
			<text transform="matrix(0.75 0 0 -0.75 10.3803 114.0352)" class="st0 st1 st2">u</text>
			<text transform="matrix(0.75 0 0 -0.75 11.4408 114.0352)" class="st0 st1 st2">l</text>
			<text transform="matrix(0.75 0 0 -0.75 11.8942 114.0352)" class="st0 st1 st2">-</text>
			<text transform="matrix(0.75 0 0 -0.75 12.4852 114.0352)" class="st0 st1 st2"> </text>
			<text transform="matrix(0.75 0 0 -0.75 12.8925 114.0352)" class="st0 st1 st2">u</text>
			<text transform="matrix(0.75 0 0 -0.75 13.9523 114.0352)" class="st0 st1 st2">n</text>
			<text transform="matrix(0.75 0 0 -0.75 15.0194 114.0352)" class="st0 st1 st2">d</text>
			<text transform="matrix(0.75 0 0 -0.75 16.1049 114.0352)" class="st0 st1 st2"> </text>
			<text transform="matrix(0.75 0 0 -0.75 16.4418 114.0352)" class="st0 st1 st2">W</text>
			<text transform="matrix(0.75 0 0 -0.75 18.0385 114.0352)" class="st0 st1 st2">i</text>
			<text transform="matrix(0.75 0 0 -0.75 18.4889 114.0352)" class="st0 st1 st2">s</text>
			<text transform="matrix(0.75 0 0 -0.75 19.2499 114.0352)" class="st0 st1 st2">s</text>
			<text transform="matrix(0.75 0 0 -0.75 20.0123 114.0352)" class="st0 st1 st2">e</text>
			<text transform="matrix(0.75 0 0 -0.75 20.9755 114.0352)" class="st0 st1 st2">n</text>
			<text transform="matrix(0.75 0 0 -0.75 22.0433 114.0352)" class="st0 st1 st2">s</text>
			<text transform="matrix(0.75 0 0 -0.75 22.8043 114.0352)" class="st0 st1 st2">c</text>
			<text transform="matrix(0.75 0 0 -0.75 23.6664 114.0352)" class="st0 st1 st2">h</text>
			<text transform="matrix(0.75 0 0 -0.75 24.7335 114.0352)" class="st0 st1 st2">a</text>
			<text transform="matrix(0.75 0 0 -0.75 25.6608 114.0352)" class="st0 st1 st2">f</text>
			<text transform="matrix(0.75 0 0 -0.75 26.246 114.0352)" class="st0 st1 st2">t</text>
			<text transform="matrix(0.75 0 0 -0.75 26.8825 114.0352)" class="st0 st1 st2">s</text>
			<text transform="matrix(0.75 0 0 -0.75 27.6434 114.0352)" class="st0 st1 st2">f</text>
			<text transform="matrix(0.75 0 0 -0.75 28.181 114.0352)" class="st0 st1 st2">o</text>
			<text transform="matrix(0.75 0 0 -0.75 29.2365 114.0352)" class="st0 st1 st2">r</text>
			<text transform="matrix(0.75 0 0 -0.75 29.8656 114.0352)" class="st0 st1 st2">s</text>
			<text transform="matrix(0.75 0 0 -0.75 30.6273 114.0352)" class="st0 st1 st2">c</text>
			<text transform="matrix(0.75 0 0 -0.75 31.4894 114.0352)" class="st0 st1 st2">h</text>
			<text transform="matrix(0.75 0 0 -0.75 32.5565 114.0352)" class="st0 st1 st2">u</text>
			<text transform="matrix(0.75 0 0 -0.75 33.6163 114.0352)" class="st0 st1 st2">n</text>
			<text transform="matrix(0.75 0 0 -0.75 34.6835 114.0352)" class="st0 st1 st2">g</text>
		</g>
		<path id="path20" class="st3" d="M285.4,1245.2l2.4-9.4h-25.4v9.4H285.4L285.4,1245.2"/>
		<path id="path22" class="st3" d="M116.7,1192.9h65.5v9.7h-50.2v0.4l49.5,72.6v7.1H121v-9.7h45.5v-0.4l-49.8-72.9V1192.9
			L116.7,1192.9"/>
		<path id="path24" class="st3" d="M47.1,1272c3.1,0.6,7.5,1.2,13.5,1.2c24.4,0,36.3-13.4,36.1-34.4c0-24.1-13.4-37.9-38-37.9
			c-4.5,0-8.7,0.1-11.7,0.6C47.1,1201.5,47.1,1272,47.1,1272z M35.6,1192.7c5.8-0.6,12.7-1.1,20.9-1.1c17.3,0,31.1,4.5,39.4,12.8
			c8.3,8.2,12.9,20.1,12.9,34.7c0,14.4-4.6,24.7-12.6,32c-7.8,7.3-19.6,11.1-36.1,11.1c-9.1,0-17.5-0.8-24.5-1.8V1192.7L35.6,1192.7
			"/>
		<path id="path26" class="st3" d="M195.7,1282.7v-89.8h11.6v51.4h43.4v-51.4h11.7v89.8h-11.7v-38.6l-43.4,0l-0.1,38.6H195.7
			L195.7,1282.7"/>
		<path id="path28" class="st3" d="M195.7,1282.7v-89.8h11.6v42.9h43.4v-42.9h11.7v89.8h-11.7v-37.6l-43.4,0l-0.1,37.6H195.7
			L195.7,1282.7"/>
		<path id="path30" class="st3" d="M365.8,1149.8l2.4-9.4h11.4l-2.2,9.4H365.8L365.8,1149.8"/>
		<path id="path32" class="st3" d="M275.9,1282.7l9.5-37.4H297l-8.8,37.4H275.9L275.9,1282.7"/>
		<path id="path34" class="st3" d="M385.5,1282.7l-25.4-89.8h-5.7v13.5h0.2c0,0,4.5,22.3,9.2,39c4.4,15.7,9.9,37.2,9.9,37.2H385.5
			L385.5,1282.7"/>
		<path id="path36" class="st3" d="M287.8,1235.8l10.8-42.9h7.1v13.3h-0.3c0,0-2.1,10.7-2.8,14.3c-0.5,2.3-3.5,15.3-3.5,15.3H287.8
			L287.8,1235.8"/>
		<path id="path38" class="st3" d="M330.8,1282.7H325c0,0-11-42-12.1-45.9c-4.7-16.6-7.2-30.6-7.2-30.6h-0.3v-13.3h5.3
			c0,0,11.4,41.2,14.3,51.9c4.1,15.2,5.5,24.1,5.5,24.1h0.2L330.8,1282.7L330.8,1282.7"/>
		<path id="path40" class="st3" d="M330.5,1282.7h6.6c0,0,10.1-42,11.1-45.9c0.7-3.1,3.8-16.6,4.3-19.3c0.5-2.7,1.9-11,1.9-11h0.2
			v-13.5h-6.7c0,0-7.7,32-10.8,44.6c-0.7,2.8-3.2,13.3-3.9,16.8c-1,5.2-2.5,14.6-2.5,14.6h-0.2L330.5,1282.7L330.5,1282.7"/>
	</g>
</g>
</svg>
