<?xml version="1.0" encoding="UTF-8"?><svg xmlns="http://www.w3.org/2000/svg" xmlns:xlink="http://www.w3.org/1999/xlink" fill-opacity="1" color-rendering="auto" color-interpolation="auto" text-rendering="auto" stroke="black" stroke-linecap="square" width="1007" stroke-miterlimit="10" shape-rendering="auto" stroke-opacity="1" fill="black" stroke-dasharray="none" font-weight="normal" stroke-width="1" height="489" font-family="'Dialog'" font-style="normal" stroke-linejoin="miter" font-size="12px" stroke-dashoffset="0" image-rendering="auto">
  <!--Generated by ySVG 2.6-->
  <defs id="genericDefs"/>
  <g>
    <defs id="defs1">
      <clipPath clipPathUnits="userSpaceOnUse" id="clipPath1">
        <path d="M0 0 L1007 0 L1007 489 L0 489 L0 0 Z"/>
      </clipPath>
      <clipPath clipPathUnits="userSpaceOnUse" id="clipPath2">
        <path d="M-6 241 L1001 241 L1001 730 L-6 730 L-6 241 Z"/>
      </clipPath>
    </defs>
    <g fill="white" text-rendering="geometricPrecision" shape-rendering="geometricPrecision" transform="translate(6,-241)" stroke="white">
      <rect x="-6" width="1007" height="489" y="241" clip-path="url(#clipPath2)" stroke="none"/>
    </g>
    <g text-rendering="geometricPrecision" stroke-miterlimit="1.45" shape-rendering="geometricPrecision" transform="matrix(1,0,0,1,6,-241)" stroke-linecap="butt">
      <path fill="none" d="M314.0867 462.0428 L353.7607 429.0705" clip-path="url(#clipPath2)"/>
      <path d="M359.9133 423.9572 L347.4886 427.7818 L352.9916 429.7097 L353.8802 435.4725 Z" clip-path="url(#clipPath2)" stroke="none"/>
      <path fill="none" d="M413.4973 541.1297 L451.586 510.6973" clip-path="url(#clipPath2)"/>
      <path d="M457.836 505.7036 L445.3399 509.2879 L450.8047 511.3215 L451.582 517.1005 Z" clip-path="url(#clipPath2)" stroke="none"/>
      <path fill="none" d="M412.7534 423.9572 L452.4273 456.9295" clip-path="url(#clipPath2)"/>
      <path d="M458.5799 462.0428 L452.5469 450.5275 L451.6583 456.2903 L446.1552 458.2182 Z" clip-path="url(#clipPath2)" stroke="none"/>
      <path fill="none" d="M314.8306 505.7036 L352.9193 536.136" clip-path="url(#clipPath2)"/>
      <path d="M359.1694 541.1297 L352.9154 529.7328 L352.1381 535.5118 L346.6732 537.5454 Z" clip-path="url(#clipPath2)" stroke="none"/>
    </g>
    <g fill="rgb(255,204,153)" text-rendering="geometricPrecision" shape-rendering="geometricPrecision" transform="matrix(1,0,0,1,6,-241)" stroke="rgb(255,204,153)">
      <rect x="435.6667" width="98.6667" height="31.8333" y="648.8333" clip-path="url(#clipPath2)" stroke="none"/>
    </g>
    <g text-rendering="geometricPrecision" stroke-miterlimit="1.45" shape-rendering="geometricPrecision" transform="matrix(1,0,0,1,6,-241)" stroke-linecap="butt">
      <rect fill="none" x="435.6667" width="98.6667" height="31.8333" y="648.8333" clip-path="url(#clipPath2)"/>
      <text x="475.5137" xml:space="preserve" y="669.2852" clip-path="url(#clipPath2)" font-family="sans-serif" stroke="none">0.2</text>
    </g>
    <g fill="rgb(204,255,255)" text-rendering="geometricPrecision" shape-rendering="geometricPrecision" transform="matrix(1,0,0,1,6,-241)" stroke="rgb(204,255,255)">
      <rect x="337" width="98.6667" height="31.8333" y="648.8333" clip-path="url(#clipPath2)" stroke="none"/>
    </g>
    <g text-rendering="geometricPrecision" stroke-miterlimit="1.45" shape-rendering="geometricPrecision" transform="matrix(1,0,0,1,6,-241)" stroke-linecap="butt">
      <rect fill="none" x="337" width="98.6667" height="31.8333" y="648.8333" clip-path="url(#clipPath2)"/>
      <text x="376.847" xml:space="preserve" y="669.2852" clip-path="url(#clipPath2)" font-family="sans-serif" stroke="none">0.8</text>
      <ellipse rx="49.3333" fill="none" ry="26" clip-path="url(#clipPath2)" cx="287.6667" cy="484"/>
      <text x="277.1608" xml:space="preserve" y="488.5352" clip-path="url(#clipPath2)" font-family="sans-serif" stroke="none">sun</text>
      <ellipse rx="49.3333" fill="none" ry="26" clip-path="url(#clipPath2)" cx="386.3333" cy="402"/>
      <text x="375.1068" xml:space="preserve" y="406.5352" clip-path="url(#clipPath2)" font-family="sans-serif" stroke="none">rain</text>
      <ellipse rx="49.3333" fill="none" ry="26" clip-path="url(#clipPath2)" cx="485" cy="484"/>
      <text x="465.7549" xml:space="preserve" y="488.5352" clip-path="url(#clipPath2)" font-family="sans-serif" stroke="none">Humid</text>
      <ellipse rx="49.3333" fill="none" ry="26" clip-path="url(#clipPath2)" cx="386.3333" cy="562.8333"/>
      <text x="371.3685" xml:space="preserve" y="567.3685" clip-path="url(#clipPath2)" font-family="sans-serif" stroke="none">temp</text>
    </g>
    <g fill="white" text-rendering="geometricPrecision" shape-rendering="geometricPrecision" transform="matrix(1,0,0,1,6,-241)" stroke="white">
      <rect x="337" width="98.6667" height="30" y="257.3333" clip-path="url(#clipPath2)" stroke="none"/>
    </g>
    <g text-rendering="geometricPrecision" stroke-miterlimit="1.45" shape-rendering="geometricPrecision" transform="matrix(1,0,0,1,6,-241)" stroke-linecap="butt">
      <rect fill="none" x="337" width="98.6667" height="30" y="257.3333" clip-path="url(#clipPath2)"/>
      <text x="359.0081" y="276.8685" clip-path="url(#clipPath2)" font-family="sans-serif" stroke="none" font-weight="bold" xml:space="preserve">rain=yes</text>
    </g>
    <g fill="white" text-rendering="geometricPrecision" shape-rendering="geometricPrecision" transform="matrix(1,0,0,1,6,-241)" stroke="white">
      <rect x="435.6667" width="98.6667" height="30" y="257.3333" clip-path="url(#clipPath2)" stroke="none"/>
    </g>
    <g text-rendering="geometricPrecision" stroke-miterlimit="1.45" shape-rendering="geometricPrecision" transform="matrix(1,0,0,1,6,-241)" stroke-linecap="butt">
      <rect fill="none" x="435.6667" width="98.6667" height="30" y="257.3333" clip-path="url(#clipPath2)"/>
      <text x="460.3086" y="276.8685" clip-path="url(#clipPath2)" font-family="sans-serif" stroke="none" font-weight="bold" xml:space="preserve">rain=no</text>
    </g>
    <g fill="white" text-rendering="geometricPrecision" shape-rendering="geometricPrecision" transform="matrix(1,0,0,1,6,-241)" stroke="white">
      <rect x="337" width="98.6667" height="31.8333" y="287.3333" clip-path="url(#clipPath2)" stroke="none"/>
    </g>
    <g text-rendering="geometricPrecision" stroke-miterlimit="1.45" shape-rendering="geometricPrecision" transform="matrix(1,0,0,1,6,-241)" stroke-linecap="butt">
      <rect fill="none" x="337" width="98.6667" height="31.8333" y="287.3333" clip-path="url(#clipPath2)"/>
      <text x="376.847" xml:space="preserve" y="307.7852" clip-path="url(#clipPath2)" font-family="sans-serif" stroke="none">0.0</text>
    </g>
    <g fill="rgb(204,255,255)" text-rendering="geometricPrecision" shape-rendering="geometricPrecision" transform="matrix(1,0,0,1,6,-241)" stroke="rgb(204,255,255)">
      <rect x="435.6667" width="50" height="31.8333" y="287.3333" clip-path="url(#clipPath2)" stroke="none"/>
    </g>
    <g text-rendering="geometricPrecision" stroke-miterlimit="1.45" shape-rendering="geometricPrecision" transform="matrix(1,0,0,1,6,-241)" stroke-linecap="butt">
      <rect fill="none" x="435.6667" width="50" height="31.8333" y="287.3333" clip-path="url(#clipPath2)"/>
    </g>
    <g fill="white" text-rendering="geometricPrecision" shape-rendering="geometricPrecision" transform="matrix(1,0,0,1,6,-241)" stroke="white">
      <rect x="238.3333" width="98.6667" height="31.8333" y="287.3333" clip-path="url(#clipPath2)" stroke="none"/>
    </g>
    <g text-rendering="geometricPrecision" stroke-miterlimit="1.45" shape-rendering="geometricPrecision" transform="matrix(1,0,0,1,6,-241)" stroke-linecap="butt">
      <rect fill="none" x="238.3333" width="98.6667" height="31.8333" y="287.3333" clip-path="url(#clipPath2)"/>
      <text x="261.2145" y="307.7852" clip-path="url(#clipPath2)" font-family="sans-serif" stroke="none" font-weight="bold" xml:space="preserve">sun=yes</text>
    </g>
    <g fill="white" text-rendering="geometricPrecision" shape-rendering="geometricPrecision" transform="matrix(1,0,0,1,6,-241)" stroke="white">
      <rect x="337" width="98.6667" height="31.8333" y="317.3333" clip-path="url(#clipPath2)" stroke="none"/>
    </g>
    <g text-rendering="geometricPrecision" stroke-miterlimit="1.45" shape-rendering="geometricPrecision" transform="matrix(1,0,0,1,6,-241)" stroke-linecap="butt">
      <rect fill="none" x="337" width="98.6667" height="31.8333" y="317.3333" clip-path="url(#clipPath2)"/>
      <text x="376.847" xml:space="preserve" y="337.7852" clip-path="url(#clipPath2)" font-family="sans-serif" stroke="none">0.6</text>
    </g>
    <g fill="white" text-rendering="geometricPrecision" shape-rendering="geometricPrecision" transform="matrix(1,0,0,1,6,-241)" stroke="white">
      <rect x="435.6667" width="98.6667" height="31.8333" y="317.3333" clip-path="url(#clipPath2)" stroke="none"/>
    </g>
    <g text-rendering="geometricPrecision" stroke-miterlimit="1.45" shape-rendering="geometricPrecision" transform="matrix(1,0,0,1,6,-241)" stroke-linecap="butt">
      <rect fill="none" x="435.6667" width="98.6667" height="31.8333" y="317.3333" clip-path="url(#clipPath2)"/>
      <text x="475.5137" xml:space="preserve" y="337.7852" clip-path="url(#clipPath2)" font-family="sans-serif" stroke="none">0.4</text>
    </g>
    <g fill="white" text-rendering="geometricPrecision" shape-rendering="geometricPrecision" transform="matrix(1,0,0,1,6,-241)" stroke="white">
      <rect x="238.3333" width="98.6667" height="31.8333" y="317.3333" clip-path="url(#clipPath2)" stroke="none"/>
    </g>
    <g text-rendering="geometricPrecision" stroke-miterlimit="1.45" shape-rendering="geometricPrecision" transform="matrix(1,0,0,1,6,-241)" stroke-linecap="butt">
      <rect fill="none" x="238.3333" width="98.6667" height="31.8333" y="317.3333" clip-path="url(#clipPath2)"/>
      <text x="263.8483" y="337.7852" clip-path="url(#clipPath2)" font-family="sans-serif" stroke="none" font-weight="bold" xml:space="preserve">sun=no</text>
      <rect fill="none" x="9.3333" width="98.6667" height="30" y="452.2119" clip-path="url(#clipPath2)"/>
      <text x="32.2145" y="471.7471" clip-path="url(#clipPath2)" font-family="sans-serif" stroke="none" font-weight="bold" xml:space="preserve">sun=yes</text>
      <rect fill="none" x="108" width="98.6667" height="30" y="452.2119" clip-path="url(#clipPath2)"/>
      <text x="133.515" y="471.7471" clip-path="url(#clipPath2)" font-family="sans-serif" stroke="none" font-weight="bold" xml:space="preserve">sun=no</text>
      <rect fill="none" x="9.3333" width="98.6667" height="31.8333" y="482.2119" clip-path="url(#clipPath2)"/>
      <text x="54.8727" xml:space="preserve" y="502.6638" clip-path="url(#clipPath2)" font-family="sans-serif" stroke="none">1</text>
      <rect fill="none" x="108" width="98.6667" height="31.8333" y="482.2119" clip-path="url(#clipPath2)"/>
      <text x="153.5394" xml:space="preserve" y="502.6638" clip-path="url(#clipPath2)" font-family="sans-serif" stroke="none">0</text>
    </g>
    <g fill="white" text-rendering="geometricPrecision" shape-rendering="geometricPrecision" transform="matrix(1,0,0,1,6,-241)" stroke="white">
      <rect x="337" width="98.6667" height="30" y="618.8333" clip-path="url(#clipPath2)" stroke="none"/>
    </g>
    <g text-rendering="geometricPrecision" stroke-miterlimit="1.45" shape-rendering="geometricPrecision" transform="matrix(1,0,0,1,6,-241)" stroke-linecap="butt">
      <rect fill="none" x="337" width="98.6667" height="30" y="618.8333" clip-path="url(#clipPath2)"/>
      <text x="352.0296" y="638.3685" clip-path="url(#clipPath2)" font-family="sans-serif" stroke="none" font-weight="bold" xml:space="preserve">temp=high</text>
    </g>
    <g fill="white" text-rendering="geometricPrecision" shape-rendering="geometricPrecision" transform="matrix(1,0,0,1,6,-241)" stroke="white">
      <rect x="435.6667" width="98.6667" height="30" y="618.8333" clip-path="url(#clipPath2)" stroke="none"/>
    </g>
    <g text-rendering="geometricPrecision" stroke-miterlimit="1.45" shape-rendering="geometricPrecision" transform="matrix(1,0,0,1,6,-241)" stroke-linecap="butt">
      <rect fill="none" x="435.6667" width="98.6667" height="30" y="618.8333" clip-path="url(#clipPath2)"/>
      <text x="453.5264" y="638.3685" clip-path="url(#clipPath2)" font-family="sans-serif" stroke="none" font-weight="bold" xml:space="preserve">temp=low</text>
    </g>
    <g fill="white" text-rendering="geometricPrecision" shape-rendering="geometricPrecision" transform="matrix(1,0,0,1,6,-241)" stroke="white">
      <rect x="238.3333" width="98.6667" height="31.8333" y="648.8333" clip-path="url(#clipPath2)" stroke="none"/>
    </g>
    <g text-rendering="geometricPrecision" stroke-miterlimit="1.45" shape-rendering="geometricPrecision" transform="matrix(1,0,0,1,6,-241)" stroke-linecap="butt">
      <rect fill="none" x="238.3333" width="98.6667" height="31.8333" y="648.8333" clip-path="url(#clipPath2)"/>
      <text x="261.2145" y="669.2852" clip-path="url(#clipPath2)" font-family="sans-serif" stroke="none" font-weight="bold" xml:space="preserve">sun=yes</text>
    </g>
    <g fill="white" text-rendering="geometricPrecision" shape-rendering="geometricPrecision" transform="matrix(1,0,0,1,6,-241)" stroke="white">
      <rect x="337" width="98.6667" height="31.8333" y="678.8333" clip-path="url(#clipPath2)" stroke="none"/>
    </g>
    <g text-rendering="geometricPrecision" stroke-miterlimit="1.45" shape-rendering="geometricPrecision" transform="matrix(1,0,0,1,6,-241)" stroke-linecap="butt">
      <rect fill="none" x="337" width="98.6667" height="31.8333" y="678.8333" clip-path="url(#clipPath2)"/>
      <text x="376.847" xml:space="preserve" y="699.2852" clip-path="url(#clipPath2)" font-family="sans-serif" stroke="none">0.5</text>
    </g>
    <g fill="white" text-rendering="geometricPrecision" shape-rendering="geometricPrecision" transform="matrix(1,0,0,1,6,-241)" stroke="white">
      <rect x="435.6667" width="98.6667" height="31.8333" y="678.8333" clip-path="url(#clipPath2)" stroke="none"/>
    </g>
    <g text-rendering="geometricPrecision" stroke-miterlimit="1.45" shape-rendering="geometricPrecision" transform="matrix(1,0,0,1,6,-241)" stroke-linecap="butt">
      <rect fill="none" x="435.6667" width="98.6667" height="31.8333" y="678.8333" clip-path="url(#clipPath2)"/>
      <text x="475.5137" xml:space="preserve" y="699.2852" clip-path="url(#clipPath2)" font-family="sans-serif" stroke="none">0.5</text>
    </g>
    <g fill="white" text-rendering="geometricPrecision" shape-rendering="geometricPrecision" transform="matrix(1,0,0,1,6,-241)" stroke="white">
      <rect x="238.3333" width="98.6667" height="31.8333" y="678.8333" clip-path="url(#clipPath2)" stroke="none"/>
    </g>
    <g text-rendering="geometricPrecision" stroke-miterlimit="1.45" shape-rendering="geometricPrecision" transform="matrix(1,0,0,1,6,-241)" stroke-linecap="butt">
      <rect fill="none" x="238.3333" width="98.6667" height="31.8333" y="678.8333" clip-path="url(#clipPath2)"/>
      <text x="263.8483" y="699.2852" clip-path="url(#clipPath2)" font-family="sans-serif" stroke="none" font-weight="bold" xml:space="preserve">sun=no</text>
    </g>
    <g fill="white" text-rendering="geometricPrecision" shape-rendering="geometricPrecision" transform="matrix(1,0,0,1,6,-241)" stroke="white">
      <rect x="678.3333" width="98.6667" height="30" y="256.4167" clip-path="url(#clipPath2)" stroke="none"/>
    </g>
    <g text-rendering="geometricPrecision" stroke-miterlimit="1.45" shape-rendering="geometricPrecision" transform="matrix(1,0,0,1,6,-241)" stroke-linecap="butt">
      <rect fill="none" x="678.3333" width="98.6667" height="30" y="256.4167" clip-path="url(#clipPath2)"/>
      <text x="711.9255" y="275.9518" clip-path="url(#clipPath2)" font-family="sans-serif" stroke="none" font-weight="bold" xml:space="preserve">temp</text>
    </g>
    <g fill="white" text-rendering="geometricPrecision" shape-rendering="geometricPrecision" transform="matrix(1,0,0,1,6,-241)" stroke="white">
      <rect x="777" width="98.6667" height="30" y="256.4167" clip-path="url(#clipPath2)" stroke="none"/>
    </g>
    <g text-rendering="geometricPrecision" stroke-miterlimit="1.45" shape-rendering="geometricPrecision" transform="matrix(1,0,0,1,6,-241)" stroke-linecap="butt">
      <rect fill="none" x="777" width="98.6667" height="30" y="256.4167" clip-path="url(#clipPath2)"/>
      <text x="791.5286" y="275.9518" clip-path="url(#clipPath2)" font-family="sans-serif" stroke="none" font-weight="bold" xml:space="preserve">humid=yes</text>
    </g>
    <g fill="white" text-rendering="geometricPrecision" shape-rendering="geometricPrecision" transform="matrix(1,0,0,1,6,-241)" stroke="white">
      <rect x="678.3333" width="98.6667" height="31.8333" y="286.4167" clip-path="url(#clipPath2)" stroke="none"/>
    </g>
    <g text-rendering="geometricPrecision" stroke-miterlimit="1.45" shape-rendering="geometricPrecision" transform="matrix(1,0,0,1,6,-241)" stroke-linecap="butt">
      <rect fill="none" x="678.3333" width="98.6667" height="31.8333" y="286.4167" clip-path="url(#clipPath2)"/>
      <text x="714.7438" xml:space="preserve" y="306.8685" clip-path="url(#clipPath2)" font-family="sans-serif" stroke="none">high</text>
    </g>
    <g fill="white" text-rendering="geometricPrecision" shape-rendering="geometricPrecision" transform="matrix(1,0,0,1,6,-241)" stroke="white">
      <rect x="777" width="98.6667" height="31.8333" y="286.4167" clip-path="url(#clipPath2)" stroke="none"/>
    </g>
    <g text-rendering="geometricPrecision" stroke-miterlimit="1.45" shape-rendering="geometricPrecision" transform="matrix(1,0,0,1,6,-241)" stroke-linecap="butt">
      <rect fill="none" x="777" width="98.6667" height="31.8333" y="286.4167" clip-path="url(#clipPath2)"/>
      <text x="816.847" xml:space="preserve" y="306.8685" clip-path="url(#clipPath2)" font-family="sans-serif" stroke="none">0.9</text>
    </g>
    <g fill="white" text-rendering="geometricPrecision" shape-rendering="geometricPrecision" transform="matrix(1,0,0,1,6,-241)" stroke="white">
      <rect x="579.6667" width="98.6667" height="31.8333" y="286.4167" clip-path="url(#clipPath2)" stroke="none"/>
    </g>
    <g text-rendering="geometricPrecision" stroke-miterlimit="1.45" shape-rendering="geometricPrecision" transform="matrix(1,0,0,1,6,-241)" stroke-linecap="butt">
      <rect fill="none" x="579.6667" width="98.6667" height="31.8333" y="286.4167" clip-path="url(#clipPath2)"/>
      <text x="619.4639" xml:space="preserve" y="306.8685" clip-path="url(#clipPath2)" font-family="sans-serif" stroke="none">yes</text>
    </g>
    <g fill="white" text-rendering="geometricPrecision" shape-rendering="geometricPrecision" transform="matrix(1,0,0,1,6,-241)" stroke="white">
      <rect x="678.3333" width="98.6667" height="31.8333" y="316.4167" clip-path="url(#clipPath2)" stroke="none"/>
    </g>
    <g text-rendering="geometricPrecision" stroke-miterlimit="1.45" shape-rendering="geometricPrecision" transform="matrix(1,0,0,1,6,-241)" stroke-linecap="butt">
      <rect fill="none" x="678.3333" width="98.6667" height="31.8333" y="316.4167" clip-path="url(#clipPath2)"/>
      <text x="717.6237" xml:space="preserve" y="336.8685" clip-path="url(#clipPath2)" font-family="sans-serif" stroke="none">low</text>
    </g>
    <g fill="white" text-rendering="geometricPrecision" shape-rendering="geometricPrecision" transform="matrix(1,0,0,1,6,-241)" stroke="white">
      <rect x="777" width="98.6667" height="31.8333" y="316.4167" clip-path="url(#clipPath2)" stroke="none"/>
    </g>
    <g text-rendering="geometricPrecision" stroke-miterlimit="1.45" shape-rendering="geometricPrecision" transform="matrix(1,0,0,1,6,-241)" stroke-linecap="butt">
      <rect fill="none" x="777" width="98.6667" height="31.8333" y="316.4167" clip-path="url(#clipPath2)"/>
      <text x="816.847" xml:space="preserve" y="336.8685" clip-path="url(#clipPath2)" font-family="sans-serif" stroke="none">0.4</text>
    </g>
    <g fill="white" text-rendering="geometricPrecision" shape-rendering="geometricPrecision" transform="matrix(1,0,0,1,6,-241)" stroke="white">
      <rect x="579.6667" width="98.6667" height="31.8333" y="316.4167" clip-path="url(#clipPath2)" stroke="none"/>
    </g>
    <g text-rendering="geometricPrecision" stroke-miterlimit="1.45" shape-rendering="geometricPrecision" transform="matrix(1,0,0,1,6,-241)" stroke-linecap="butt">
      <rect fill="none" x="579.6667" width="98.6667" height="31.8333" y="316.4167" clip-path="url(#clipPath2)"/>
      <text x="619.4639" xml:space="preserve" y="336.8685" clip-path="url(#clipPath2)" font-family="sans-serif" stroke="none">yes</text>
    </g>
    <g fill="white" text-rendering="geometricPrecision" shape-rendering="geometricPrecision" transform="matrix(1,0,0,1,6,-241)" stroke="white">
      <rect x="579.6667" width="98.6667" height="30" y="256.4167" clip-path="url(#clipPath2)" stroke="none"/>
    </g>
    <g text-rendering="geometricPrecision" stroke-miterlimit="1.45" shape-rendering="geometricPrecision" transform="matrix(1,0,0,1,6,-241)" stroke-linecap="butt">
      <rect fill="none" x="579.6667" width="98.6667" height="30" y="256.4167" clip-path="url(#clipPath2)"/>
      <text x="616.8535" y="275.9518" clip-path="url(#clipPath2)" font-family="sans-serif" stroke="none" font-weight="bold" xml:space="preserve">rain</text>
    </g>
    <g fill="white" text-rendering="geometricPrecision" shape-rendering="geometricPrecision" transform="matrix(1,0,0,1,6,-241)" stroke="white">
      <rect x="875.6667" width="98.6667" height="30" y="256.4167" clip-path="url(#clipPath2)" stroke="none"/>
    </g>
    <g text-rendering="geometricPrecision" stroke-miterlimit="1.45" shape-rendering="geometricPrecision" transform="matrix(1,0,0,1,6,-241)" stroke-linecap="butt">
      <rect fill="none" x="875.6667" width="98.6667" height="30" y="256.4167" clip-path="url(#clipPath2)"/>
      <text x="892.8291" y="275.9518" clip-path="url(#clipPath2)" font-family="sans-serif" stroke="none" font-weight="bold" xml:space="preserve">humid=no</text>
    </g>
    <g fill="white" text-rendering="geometricPrecision" shape-rendering="geometricPrecision" transform="matrix(1,0,0,1,6,-241)" stroke="white">
      <rect x="875.6667" width="98.6667" height="31.8333" y="286.4167" clip-path="url(#clipPath2)" stroke="none"/>
    </g>
    <g text-rendering="geometricPrecision" stroke-miterlimit="1.45" shape-rendering="geometricPrecision" transform="matrix(1,0,0,1,6,-241)" stroke-linecap="butt">
      <rect fill="none" x="875.6667" width="98.6667" height="31.8333" y="286.4167" clip-path="url(#clipPath2)"/>
      <text x="915.5137" xml:space="preserve" y="306.8685" clip-path="url(#clipPath2)" font-family="sans-serif" stroke="none">0.1</text>
    </g>
    <g fill="white" text-rendering="geometricPrecision" shape-rendering="geometricPrecision" transform="matrix(1,0,0,1,6,-241)" stroke="white">
      <rect x="875.6667" width="98.6667" height="31.8333" y="316.4167" clip-path="url(#clipPath2)" stroke="none"/>
    </g>
    <g text-rendering="geometricPrecision" stroke-miterlimit="1.45" shape-rendering="geometricPrecision" transform="matrix(1,0,0,1,6,-241)" stroke-linecap="butt">
      <rect fill="none" x="875.6667" width="98.6667" height="31.8333" y="316.4167" clip-path="url(#clipPath2)"/>
      <text x="915.5137" xml:space="preserve" y="336.8685" clip-path="url(#clipPath2)" font-family="sans-serif" stroke="none">0.6</text>
    </g>
    <g fill="white" text-rendering="geometricPrecision" shape-rendering="geometricPrecision" transform="matrix(1,0,0,1,6,-241)" stroke="white">
      <rect x="678.3333" width="98.6667" height="31.8333" y="348.25" clip-path="url(#clipPath2)" stroke="none"/>
    </g>
    <g text-rendering="geometricPrecision" stroke-miterlimit="1.45" shape-rendering="geometricPrecision" transform="matrix(1,0,0,1,6,-241)" stroke-linecap="butt">
      <rect fill="none" x="678.3333" width="98.6667" height="31.8333" y="348.25" clip-path="url(#clipPath2)"/>
      <text x="714.7438" xml:space="preserve" y="368.7018" clip-path="url(#clipPath2)" font-family="sans-serif" stroke="none">high</text>
    </g>
    <g fill="rgb(204,255,255)" text-rendering="geometricPrecision" shape-rendering="geometricPrecision" transform="matrix(1,0,0,1,6,-241)" stroke="rgb(204,255,255)">
      <rect x="777" width="98.6667" height="31.8333" y="348.25" clip-path="url(#clipPath2)" stroke="none"/>
    </g>
    <g text-rendering="geometricPrecision" stroke-miterlimit="1.45" shape-rendering="geometricPrecision" transform="matrix(1,0,0,1,6,-241)" stroke-linecap="butt">
      <rect fill="none" x="777" width="98.6667" height="31.8333" y="348.25" clip-path="url(#clipPath2)"/>
      <text x="816.847" xml:space="preserve" y="368.7018" clip-path="url(#clipPath2)" font-family="sans-serif" stroke="none">0.5</text>
    </g>
    <g fill="white" text-rendering="geometricPrecision" shape-rendering="geometricPrecision" transform="matrix(1,0,0,1,6,-241)" stroke="white">
      <rect x="579.6667" width="98.6667" height="31.8333" y="348.25" clip-path="url(#clipPath2)" stroke="none"/>
    </g>
    <g text-rendering="geometricPrecision" stroke-miterlimit="1.45" shape-rendering="geometricPrecision" transform="matrix(1,0,0,1,6,-241)" stroke-linecap="butt">
      <rect fill="none" x="579.6667" width="98.6667" height="31.8333" y="348.25" clip-path="url(#clipPath2)"/>
      <text x="621.5908" xml:space="preserve" y="368.7018" clip-path="url(#clipPath2)" font-family="sans-serif" stroke="none">no</text>
    </g>
    <g fill="white" text-rendering="geometricPrecision" shape-rendering="geometricPrecision" transform="matrix(1,0,0,1,6,-241)" stroke="white">
      <rect x="875.6667" width="98.6667" height="31.8333" y="348.25" clip-path="url(#clipPath2)" stroke="none"/>
    </g>
    <g text-rendering="geometricPrecision" stroke-miterlimit="1.45" shape-rendering="geometricPrecision" transform="matrix(1,0,0,1,6,-241)" stroke-linecap="butt">
      <rect fill="none" x="875.6667" width="98.6667" height="31.8333" y="348.25" clip-path="url(#clipPath2)"/>
      <text x="915.5137" xml:space="preserve" y="368.7018" clip-path="url(#clipPath2)" font-family="sans-serif" stroke="none">0.5</text>
    </g>
    <g fill="white" text-rendering="geometricPrecision" shape-rendering="geometricPrecision" transform="matrix(1,0,0,1,6,-241)" stroke="white">
      <rect x="678.3333" width="98.6667" height="31.8333" y="380.0833" clip-path="url(#clipPath2)" stroke="none"/>
    </g>
    <g text-rendering="geometricPrecision" stroke-miterlimit="1.45" shape-rendering="geometricPrecision" transform="matrix(1,0,0,1,6,-241)" stroke-linecap="butt">
      <rect fill="none" x="678.3333" width="98.6667" height="31.8333" y="380.0833" clip-path="url(#clipPath2)"/>
      <text x="717.6237" xml:space="preserve" y="400.5352" clip-path="url(#clipPath2)" font-family="sans-serif" stroke="none">low</text>
    </g>
    <g fill="rgb(255,204,153)" text-rendering="geometricPrecision" shape-rendering="geometricPrecision" transform="matrix(1,0,0,1,6,-241)" stroke="rgb(255,204,153)">
      <rect x="777" width="98.6667" height="31.8333" y="380.0833" clip-path="url(#clipPath2)" stroke="none"/>
    </g>
    <g text-rendering="geometricPrecision" stroke-miterlimit="1.45" shape-rendering="geometricPrecision" transform="matrix(1,0,0,1,6,-241)" stroke-linecap="butt">
      <rect fill="none" x="777" width="98.6667" height="31.8333" y="380.0833" clip-path="url(#clipPath2)"/>
      <text x="816.847" xml:space="preserve" y="400.5352" clip-path="url(#clipPath2)" font-family="sans-serif" stroke="none">0.3</text>
    </g>
    <g fill="white" text-rendering="geometricPrecision" shape-rendering="geometricPrecision" transform="matrix(1,0,0,1,6,-241)" stroke="white">
      <rect x="579.6667" width="98.6667" height="31.8333" y="380.0833" clip-path="url(#clipPath2)" stroke="none"/>
    </g>
    <g text-rendering="geometricPrecision" stroke-miterlimit="1.45" shape-rendering="geometricPrecision" transform="matrix(1,0,0,1,6,-241)" stroke-linecap="butt">
      <rect fill="none" x="579.6667" width="98.6667" height="31.8333" y="380.0833" clip-path="url(#clipPath2)"/>
      <text x="621.5908" xml:space="preserve" y="400.5352" clip-path="url(#clipPath2)" font-family="sans-serif" stroke="none">no</text>
    </g>
    <g fill="white" text-rendering="geometricPrecision" shape-rendering="geometricPrecision" transform="matrix(1,0,0,1,6,-241)" stroke="white">
      <rect x="875.6667" width="98.6667" height="31.8333" y="380.0833" clip-path="url(#clipPath2)" stroke="none"/>
    </g>
    <g text-rendering="geometricPrecision" stroke-miterlimit="1.45" shape-rendering="geometricPrecision" transform="matrix(1,0,0,1,6,-241)" stroke-linecap="butt">
      <rect fill="none" x="875.6667" width="98.6667" height="31.8333" y="380.0833" clip-path="url(#clipPath2)"/>
      <text x="915.5137" xml:space="preserve" y="400.5352" clip-path="url(#clipPath2)" font-family="sans-serif" stroke="none">0.7</text>
      <text x="576.8924" font-size="14px" y="643.2311" clip-path="url(#clipPath2)" font-family="sans-serif" stroke="none" xml:space="preserve">Given information that P(sun=yes) = 1.0</text>
      <text x="576.8924" font-size="14px" y="659.7194" clip-path="url(#clipPath2)" font-family="sans-serif" stroke="none" xml:space="preserve">{and ignoring zero-valued terms)</text>
      <text x="576.8924" font-size="14px" y="676.2077" clip-path="url(#clipPath2)" font-family="sans-serif" stroke="none" xml:space="preserve"> </text>
      <text x="576.8924" font-size="14px" y="692.696" clip-path="url(#clipPath2)" font-family="sans-serif" stroke="none" xml:space="preserve">P(Humid=yes) = (0.5 x 0.8 x 1.0) + (0.3 x 0.2 x 1.0) =0.46 </text>
      <text x="576.8924" font-size="14px" y="709.1843" clip-path="url(#clipPath2)" font-family="sans-serif" stroke="none" xml:space="preserve">P(Humid=no) = (0.5 x 0.8 x 1.0) + (0.7 x 0.2 x 1.0) = 0.54</text>
    </g>
    <g fill="silver" text-rendering="geometricPrecision" shape-rendering="geometricPrecision" transform="matrix(1,0,0,1,6,-241)" stroke="silver">
      <ellipse rx="14.957" ry="14.75" clip-path="url(#clipPath2)" cx="791.957" cy="553.1667" stroke="none"/>
    </g>
    <g stroke-linecap="butt" transform="matrix(1,0,0,1,6,-241)" fill="red" text-rendering="geometricPrecision" shape-rendering="geometricPrecision" stroke="red" stroke-miterlimit="1.45">
      <ellipse rx="14.957" fill="none" ry="14.75" clip-path="url(#clipPath2)" cx="791.957" cy="553.1667"/>
    </g>
    <g fill="white" text-rendering="geometricPrecision" shape-rendering="geometricPrecision" transform="matrix(1,0,0,1,6,-241)" stroke="white">
      <rect x="678.3333" width="98.6667" height="30" y="445.4167" clip-path="url(#clipPath2)" stroke="none"/>
    </g>
    <g text-rendering="geometricPrecision" stroke-miterlimit="1.45" shape-rendering="geometricPrecision" transform="matrix(1,0,0,1,6,-241)" stroke-linecap="butt">
      <rect fill="none" x="678.3333" width="98.6667" height="30" y="445.4167" clip-path="url(#clipPath2)"/>
      <text x="711.9255" y="464.9518" clip-path="url(#clipPath2)" font-family="sans-serif" stroke="none" font-weight="bold" xml:space="preserve">temp</text>
    </g>
    <g fill="white" text-rendering="geometricPrecision" shape-rendering="geometricPrecision" transform="matrix(1,0,0,1,6,-241)" stroke="white">
      <rect x="777" width="98.6667" height="30" y="445.4167" clip-path="url(#clipPath2)" stroke="none"/>
    </g>
    <g text-rendering="geometricPrecision" stroke-miterlimit="1.45" shape-rendering="geometricPrecision" transform="matrix(1,0,0,1,6,-241)" stroke-linecap="butt">
      <rect fill="none" x="777" width="98.6667" height="30" y="445.4167" clip-path="url(#clipPath2)"/>
      <text x="791.5286" y="464.9518" clip-path="url(#clipPath2)" font-family="sans-serif" stroke="none" font-weight="bold" xml:space="preserve">humid=yes</text>
    </g>
    <g fill="white" text-rendering="geometricPrecision" shape-rendering="geometricPrecision" transform="matrix(1,0,0,1,6,-241)" stroke="white">
      <rect x="678.3333" width="98.6667" height="31.8333" y="475.4167" clip-path="url(#clipPath2)" stroke="none"/>
    </g>
    <g text-rendering="geometricPrecision" stroke-miterlimit="1.45" shape-rendering="geometricPrecision" transform="matrix(1,0,0,1,6,-241)" stroke-linecap="butt">
      <rect fill="none" x="678.3333" width="98.6667" height="31.8333" y="475.4167" clip-path="url(#clipPath2)"/>
      <text x="714.7438" xml:space="preserve" y="495.8685" clip-path="url(#clipPath2)" font-family="sans-serif" stroke="none">high</text>
    </g>
    <g fill="white" text-rendering="geometricPrecision" shape-rendering="geometricPrecision" transform="matrix(1,0,0,1,6,-241)" stroke="white">
      <rect x="777" width="98.6667" height="31.8333" y="475.4167" clip-path="url(#clipPath2)" stroke="none"/>
    </g>
    <g text-rendering="geometricPrecision" stroke-miterlimit="1.45" shape-rendering="geometricPrecision" transform="matrix(1,0,0,1,6,-241)" stroke-linecap="butt">
      <rect fill="none" x="777" width="98.6667" height="31.8333" y="475.4167" clip-path="url(#clipPath2)"/>
    </g>
    <g fill="white" text-rendering="geometricPrecision" shape-rendering="geometricPrecision" transform="matrix(1,0,0,1,6,-241)" stroke="white">
      <rect x="579.6667" width="98.6667" height="31.8333" y="475.4167" clip-path="url(#clipPath2)" stroke="none"/>
    </g>
    <g text-rendering="geometricPrecision" stroke-miterlimit="1.45" shape-rendering="geometricPrecision" transform="matrix(1,0,0,1,6,-241)" stroke-linecap="butt">
      <rect fill="none" x="579.6667" width="98.6667" height="31.8333" y="475.4167" clip-path="url(#clipPath2)"/>
      <text x="619.4639" xml:space="preserve" y="495.8685" clip-path="url(#clipPath2)" font-family="sans-serif" stroke="none">yes</text>
    </g>
    <g fill="white" text-rendering="geometricPrecision" shape-rendering="geometricPrecision" transform="matrix(1,0,0,1,6,-241)" stroke="white">
      <rect x="678.3333" width="98.6667" height="31.8333" y="505.4167" clip-path="url(#clipPath2)" stroke="none"/>
    </g>
    <g text-rendering="geometricPrecision" stroke-miterlimit="1.45" shape-rendering="geometricPrecision" transform="matrix(1,0,0,1,6,-241)" stroke-linecap="butt">
      <rect fill="none" x="678.3333" width="98.6667" height="31.8333" y="505.4167" clip-path="url(#clipPath2)"/>
      <text x="717.6237" xml:space="preserve" y="525.8685" clip-path="url(#clipPath2)" font-family="sans-serif" stroke="none">low</text>
    </g>
    <g fill="white" text-rendering="geometricPrecision" shape-rendering="geometricPrecision" transform="matrix(1,0,0,1,6,-241)" stroke="white">
      <rect x="777" width="98.6667" height="31.8333" y="505.4167" clip-path="url(#clipPath2)" stroke="none"/>
    </g>
    <g text-rendering="geometricPrecision" stroke-miterlimit="1.45" shape-rendering="geometricPrecision" transform="matrix(1,0,0,1,6,-241)" stroke-linecap="butt">
      <rect fill="none" x="777" width="98.6667" height="31.8333" y="505.4167" clip-path="url(#clipPath2)"/>
    </g>
    <g fill="white" text-rendering="geometricPrecision" shape-rendering="geometricPrecision" transform="matrix(1,0,0,1,6,-241)" stroke="white">
      <rect x="579.6667" width="98.6667" height="31.8333" y="505.4167" clip-path="url(#clipPath2)" stroke="none"/>
    </g>
    <g text-rendering="geometricPrecision" stroke-miterlimit="1.45" shape-rendering="geometricPrecision" transform="matrix(1,0,0,1,6,-241)" stroke-linecap="butt">
      <rect fill="none" x="579.6667" width="98.6667" height="31.8333" y="505.4167" clip-path="url(#clipPath2)"/>
      <text x="619.4639" xml:space="preserve" y="525.8685" clip-path="url(#clipPath2)" font-family="sans-serif" stroke="none">yes</text>
    </g>
    <g fill="white" text-rendering="geometricPrecision" shape-rendering="geometricPrecision" transform="matrix(1,0,0,1,6,-241)" stroke="white">
      <rect x="579.6667" width="98.6667" height="30" y="445.4167" clip-path="url(#clipPath2)" stroke="none"/>
    </g>
    <g text-rendering="geometricPrecision" stroke-miterlimit="1.45" shape-rendering="geometricPrecision" transform="matrix(1,0,0,1,6,-241)" stroke-linecap="butt">
      <rect fill="none" x="579.6667" width="98.6667" height="30" y="445.4167" clip-path="url(#clipPath2)"/>
      <text x="616.8535" y="464.9518" clip-path="url(#clipPath2)" font-family="sans-serif" stroke="none" font-weight="bold" xml:space="preserve">rain</text>
    </g>
    <g fill="white" text-rendering="geometricPrecision" shape-rendering="geometricPrecision" transform="matrix(1,0,0,1,6,-241)" stroke="white">
      <rect x="875.6667" width="98.6667" height="30" y="445.4167" clip-path="url(#clipPath2)" stroke="none"/>
    </g>
    <g text-rendering="geometricPrecision" stroke-miterlimit="1.45" shape-rendering="geometricPrecision" transform="matrix(1,0,0,1,6,-241)" stroke-linecap="butt">
      <rect fill="none" x="875.6667" width="98.6667" height="30" y="445.4167" clip-path="url(#clipPath2)"/>
      <text x="892.8291" y="464.9518" clip-path="url(#clipPath2)" font-family="sans-serif" stroke="none" font-weight="bold" xml:space="preserve">humid=no</text>
    </g>
    <g fill="white" text-rendering="geometricPrecision" shape-rendering="geometricPrecision" transform="matrix(1,0,0,1,6,-241)" stroke="white">
      <rect x="875.6667" width="98.6667" height="31.8333" y="475.4167" clip-path="url(#clipPath2)" stroke="none"/>
    </g>
    <g text-rendering="geometricPrecision" stroke-miterlimit="1.45" shape-rendering="geometricPrecision" transform="matrix(1,0,0,1,6,-241)" stroke-linecap="butt">
      <rect fill="none" x="875.6667" width="98.6667" height="31.8333" y="475.4167" clip-path="url(#clipPath2)"/>
    </g>
    <g fill="white" text-rendering="geometricPrecision" shape-rendering="geometricPrecision" transform="matrix(1,0,0,1,6,-241)" stroke="white">
      <rect x="875.6667" width="98.6667" height="31.8333" y="505.4167" clip-path="url(#clipPath2)" stroke="none"/>
    </g>
    <g text-rendering="geometricPrecision" stroke-miterlimit="1.45" shape-rendering="geometricPrecision" transform="matrix(1,0,0,1,6,-241)" stroke-linecap="butt">
      <rect fill="none" x="875.6667" width="98.6667" height="31.8333" y="505.4167" clip-path="url(#clipPath2)"/>
    </g>
    <g fill="silver" text-rendering="geometricPrecision" shape-rendering="geometricPrecision" transform="matrix(1,0,0,1,6,-241)" stroke="silver">
      <rect x="678.3333" width="98.6667" height="31.8333" y="537.25" clip-path="url(#clipPath2)" stroke="none"/>
    </g>
    <g text-rendering="geometricPrecision" stroke-miterlimit="1.45" shape-rendering="geometricPrecision" transform="matrix(1,0,0,1,6,-241)" stroke-linecap="butt">
      <rect fill="none" x="678.3333" width="98.6667" height="31.8333" y="537.25" clip-path="url(#clipPath2)"/>
      <text x="714.7438" xml:space="preserve" y="557.7018" clip-path="url(#clipPath2)" font-family="sans-serif" stroke="none">high</text>
    </g>
    <g fill="rgb(204,255,255)" text-rendering="geometricPrecision" shape-rendering="geometricPrecision" transform="matrix(1,0,0,1,6,-241)" stroke="rgb(204,255,255)">
      <rect x="777" width="98.6667" height="31.8333" y="537.25" clip-path="url(#clipPath2)" stroke="none"/>
    </g>
    <g text-rendering="geometricPrecision" stroke-miterlimit="1.45" shape-rendering="geometricPrecision" transform="matrix(1,0,0,1,6,-241)" stroke-linecap="butt">
      <rect fill="none" x="777" width="98.6667" height="31.8333" y="537.25" clip-path="url(#clipPath2)"/>
      <text x="782.9212" xml:space="preserve" y="557.7018" clip-path="url(#clipPath2)" font-family="sans-serif" stroke="none">0.5 x 0.8 x 1.0</text>
    </g>
    <g fill="silver" text-rendering="geometricPrecision" shape-rendering="geometricPrecision" transform="matrix(1,0,0,1,6,-241)" stroke="silver">
      <rect x="579.6667" width="98.6667" height="31.8333" y="537.25" clip-path="url(#clipPath2)" stroke="none"/>
    </g>
    <g text-rendering="geometricPrecision" stroke-miterlimit="1.45" shape-rendering="geometricPrecision" transform="matrix(1,0,0,1,6,-241)" stroke-linecap="butt">
      <rect fill="none" x="579.6667" width="98.6667" height="31.8333" y="537.25" clip-path="url(#clipPath2)"/>
      <text x="621.5908" xml:space="preserve" y="557.7018" clip-path="url(#clipPath2)" font-family="sans-serif" stroke="none">no</text>
    </g>
    <g fill="silver" text-rendering="geometricPrecision" shape-rendering="geometricPrecision" transform="matrix(1,0,0,1,6,-241)" stroke="silver">
      <rect x="678.3333" width="98.6667" height="31.8333" y="569.0833" clip-path="url(#clipPath2)" stroke="none"/>
    </g>
    <g text-rendering="geometricPrecision" stroke-miterlimit="1.45" shape-rendering="geometricPrecision" transform="matrix(1,0,0,1,6,-241)" stroke-linecap="butt">
      <rect fill="none" x="678.3333" width="98.6667" height="31.8333" y="569.0833" clip-path="url(#clipPath2)"/>
      <text x="717.6237" xml:space="preserve" y="589.5352" clip-path="url(#clipPath2)" font-family="sans-serif" stroke="none">low</text>
    </g>
    <g fill="rgb(255,204,153)" text-rendering="geometricPrecision" shape-rendering="geometricPrecision" transform="matrix(1,0,0,1,6,-241)" stroke="rgb(255,204,153)">
      <rect x="777" width="98.6667" height="31.8333" y="569.0833" clip-path="url(#clipPath2)" stroke="none"/>
    </g>
    <g text-rendering="geometricPrecision" stroke-miterlimit="1.45" shape-rendering="geometricPrecision" transform="matrix(1,0,0,1,6,-241)" stroke-linecap="butt">
      <rect fill="none" x="777" width="98.6667" height="31.8333" y="569.0833" clip-path="url(#clipPath2)"/>
      <text x="782.9212" xml:space="preserve" y="589.5352" clip-path="url(#clipPath2)" font-family="sans-serif" stroke="none">0.3 x 0.2 x 1.0</text>
    </g>
    <g fill="silver" text-rendering="geometricPrecision" shape-rendering="geometricPrecision" transform="matrix(1,0,0,1,6,-241)" stroke="silver">
      <rect x="579.6667" width="98.6667" height="31.8333" y="569.0833" clip-path="url(#clipPath2)" stroke="none"/>
    </g>
    <g text-rendering="geometricPrecision" stroke-miterlimit="1.45" shape-rendering="geometricPrecision" transform="matrix(1,0,0,1,6,-241)" stroke-linecap="butt">
      <rect fill="none" x="579.6667" width="98.6667" height="31.8333" y="569.0833" clip-path="url(#clipPath2)"/>
      <text x="621.5908" xml:space="preserve" y="589.5352" clip-path="url(#clipPath2)" font-family="sans-serif" stroke="none">no</text>
    </g>
    <g fill="silver" text-rendering="geometricPrecision" shape-rendering="geometricPrecision" transform="matrix(1,0,0,1,6,-241)" stroke="silver">
      <rect x="875.6667" width="98.6667" height="31.8333" y="569.0833" clip-path="url(#clipPath2)" stroke="none"/>
    </g>
    <g text-rendering="geometricPrecision" stroke-miterlimit="1.45" shape-rendering="geometricPrecision" transform="matrix(1,0,0,1,6,-241)" stroke-linecap="butt">
      <rect fill="none" x="875.6667" width="98.6667" height="31.8333" y="569.0833" clip-path="url(#clipPath2)"/>
      <text x="881.5879" xml:space="preserve" y="589.5352" clip-path="url(#clipPath2)" font-family="sans-serif" stroke="none">0.7 x 0.2 x 1.0</text>
    </g>
    <g fill="silver" text-rendering="geometricPrecision" shape-rendering="geometricPrecision" transform="matrix(1,0,0,1,6,-241)" stroke="silver">
      <rect x="875.6667" width="98.6667" height="31.8333" y="537.25" clip-path="url(#clipPath2)" stroke="none"/>
    </g>
    <g text-rendering="geometricPrecision" stroke-miterlimit="1.45" shape-rendering="geometricPrecision" transform="matrix(1,0,0,1,6,-241)" stroke-linecap="butt">
      <rect fill="none" x="875.6667" width="98.6667" height="31.8333" y="537.25" clip-path="url(#clipPath2)"/>
      <text x="881.5879" xml:space="preserve" y="557.7018" clip-path="url(#clipPath2)" font-family="sans-serif" stroke="none">0.5 x 0.8 x 1.0</text>
    </g>
    <g fill="rgb(255,204,153)" text-rendering="geometricPrecision" shape-rendering="geometricPrecision" transform="matrix(1,0,0,1,6,-241)" stroke="rgb(255,204,153)">
      <rect x="485.6667" width="48.6667" height="30" y="287.3333" clip-path="url(#clipPath2)" stroke="none"/>
    </g>
    <g text-rendering="geometricPrecision" stroke-miterlimit="1.45" shape-rendering="geometricPrecision" transform="matrix(1,0,0,1,6,-241)" stroke-linecap="butt">
      <rect fill="none" x="485.6667" width="48.6667" height="30" y="287.3333" clip-path="url(#clipPath2)"/>
      <text x="475.5137" xml:space="preserve" y="306.8685" clip-path="url(#clipPath2)" font-family="sans-serif" stroke="none">1.0</text>
    </g>
  </g>
</svg>
