<?xml version="1.0" encoding="UTF-8" standalone="no"?>
<svg
   version="1.1"
   viewBox="0 0 26 34"
   height="56"
   width="56"
   id="svg4"
   sodipodi:docname="datacamp.svg"
   inkscape:version="1.2.1 (9c6d41e4, 2022-07-14)"
   xmlns:inkscape="http://www.inkscape.org/namespaces/inkscape"
   xmlns:sodipodi="http://sodipodi.sourceforge.net/DTD/sodipodi-0.dtd"
   xmlns="http://www.w3.org/2000/svg"
   xmlns:svg="http://www.w3.org/2000/svg">
  <defs
     id="defs8" />
  <sodipodi:namedview
     id="namedview6"
     pagecolor="#ffffff"
     bordercolor="#000000"
     borderopacity="0.25"
     inkscape:showpageshadow="2"
     inkscape:pageopacity="0.0"
     inkscape:pagecheckerboard="0"
     inkscape:deskcolor="#d1d1d1"
     showgrid="false"
     inkscape:zoom="18.339286"
     inkscape:cx="16.630964"
     inkscape:cy="28.027264"
     inkscape:window-width="2117"
     inkscape:window-height="1250"
     inkscape:window-x="0"
     inkscape:window-y="25"
     inkscape:window-maximized="0"
     inkscape:current-layer="svg4" />
  <path
     class="cls-2"
     d="M 13.035943,33.012714 H -2.7752561 c -0.2949008,0 -0.3742971,-0.0686 -0.3742971,-0.371566 q 0,-15.611496 0,-31.2344258 c 0,-0.2915365 0.068054,-0.3487006 0.3742971,-0.3487006 q 15.8055271,0 31.6167261,0 c 0.2949,0 0.374297,0.068597 0.374297,0.3772827 q 0,15.6172127 0,31.2287097 c 0,0.297252 -0.06239,0.377282 -0.368626,0.377282 z M 25.847097,15.709163 v 0 c 0,-0.857462 0,-1.714922 0,-2.566666 0,-0.20579 -0.05104,-0.274387 -0.255203,-0.257238 a 3.8904169,3.9214525 0 0 1 -0.629498,0 c -0.283559,-0.0343 -0.391311,0.04573 -0.385639,0.36585 0,1.291907 0,2.578098 0,3.864288 a 9.2156378,9.2891549 0 0 1 -0.0794,1.491982 1.7920871,1.8063833 0 0 1 -1.60494,1.714921 c -1.015137,0.12576 -1.854469,-0.194358 -2.20041,-1.086117 A 3.0000445,3.0239772 0 0 1 20.493516,18.20723 c -0.05671,-1.474832 0,-2.949663 0,-4.430212 0,-0.983221 0,-0.977504 -0.992453,-0.914625 -0.158793,0 -0.215504,0.05144 -0.209833,0.211507 0,1.794951 -0.06806,3.595618 0.05104,5.390568 a 2.983031,3.006828 0 0 0 1.190944,2.343726 3.2098775,3.2354841 0 0 0 1.826114,0.57164 3.0624273,3.0868576 0 0 0 3.499107,-3.229767 c 0.01134,-0.800297 -0.01134,-1.623459 -0.01134,-2.440904 z m -13.610788,1.840681 h -1.548227 c -0.147451,0 -0.311915,-0.04002 -0.311915,0.217223 0,0.257238 0.136109,0.234373 0.300572,0.234373 0.272216,0 0.567117,0 0.822319,0 a 0.59547197,0.60022232 0 0 1 0.606814,0.651669 c 0,0.308687 0,0.617373 0,0.931774 A 1.0605072,1.0689673 0 0 1 11.584126,20.493791 2.8866213,2.9096492 0 0 1 8.8619672,20.65385 C 6.7466237,19.744942 6.0263866,17.075382 7.0528663,15.068925 a 3.4423952,3.4698567 0 0 1 3.7486387,-1.834965 2.1096721,2.1265019 0 0 1 1.860141,1.583444 c 0.03403,0.137193 0.0794,0.228655 0.24386,0.194357 0.164464,-0.0343 0.198491,-0.14291 0.187149,-0.297253 0,-0.360133 -0.05104,-0.725983 -0.05104,-1.091833 a 0.35728318,0.36013339 0 0 0 -0.255202,-0.36585 5.9377062,5.9850739 0 0 0 -3.8563912,-0.36585 4.6219968,4.6588685 0 0 0 -3.0794411,2.069339 3.9131015,3.9443181 0 0 0 0.7259089,5.144762 4.9339107,4.9732707 0 0 0 2.909306,1.251892 6.7089842,6.7625048 0 0 0 3.3459864,-0.543058 0.39698132,0.40014821 0 0 0 0.266544,-0.434446 c 0,-0.657386 0,-1.309057 0,-1.966444 0,-0.280103 0.164464,-0.388715 0.408324,-0.423013 a 1.0094668,1.0175197 0 0 1 0.260874,0 c 0.175805,0 0.243859,-0.09146 0.255202,-0.240089 0.01134,-0.148626 -0.130437,-0.165776 -0.249532,-0.165776 z M 2.0282178,17.98429 v 0 c 0,1.274759 0,2.549516 0,3.824274 A 3.6635705,3.6927964 0 0 1 1.8013705,23.077606 0.4593641,0.46302865 0 0 1 1.3703627,23.42059 c -0.232518,0 -0.3289275,-0.148626 -0.41966621,-0.314403 C 0.85996057,22.940412 0.82593134,22.797502 0.74653507,22.654591 A 0.51607571,0.52019267 0 0 0 0.02629701,22.460234 0.49339107,0.49732707 0 0 0 -0.29695881,23.094755 0.98111093,0.98893768 0 0 0 0.451634,23.815021 2.0019201,2.0178903 0 0 0 2.9015767,22.414503 4.2136731,4.2472874 0 0 0 3.1397655,20.951104 q 0,-3.429842 0,-6.819669 c 0,-0.657386 0.1134227,-0.783147 0.7769484,-0.851744 h 0.1304369 c 0.1304368,0 0.2949001,0.02858 0.2892294,-0.211507 -0.0057,-0.240089 -0.1928199,-0.165776 -0.3119143,-0.165776 A 24.125122,24.317578 0 0 1 1.1605296,12.890978 H 0.99606632 A 0.1928195,0.1943577 0 0 0 0.7862332,13.096769 c 0,0.148626 0.0907359,0.182925 0.20983312,0.188641 H 1.2966372 c 0.5387607,0.04002 0.7088957,0.188641 0.7145664,0.7317 0.017009,1.331922 0.0057,2.646694 0.0057,3.967183 z M 16.915018,16.932472 v -6.659609 c 0,-1.0118036 0,-2.0236067 0,-3.0296933 0,-0.2115069 -0.05104,-0.2743873 -0.272217,-0.2915365 -0.34594,-0.028582 -0.379968,0.1143281 -0.374296,0.411581 q 0,9.5178108 0,19.0470548 v 0.228656 c 0,0.108611 0.03403,0.148626 0.14745,0.165776 0.43668,0.06288 0.48772,0 0.48772,-0.417298 z"
     id="path16"
     style="fill:#ad2431;stroke-width:0.569374" />
</svg>
